<svg id="visual" viewBox="0 0 900 600" width="900" height="600" xmlns="http://www.w3.org/2000/svg" xmlns:xlink="http://www.w3.org/1999/xlink" version="1.1"><rect width="900" height="600" fill="#0b0e28"></rect><g><g transform="translate(894 567)"><path d="M0 -147L127.3 -73.5L127.3 73.5L0 147L-127.3 73.5L-127.3 -73.5Z" fill="#558fff"></path></g><g transform="translate(492 215)"><path d="M0 -129L111.7 -64.5L111.7 64.5L0 129L-111.7 64.5L-111.7 -64.5Z" fill="#558fff"></path></g><g transform="translate(155 328)"><path d="M0 -56L48.5 -28L48.5 28L0 56L-48.5 28L-48.5 -28Z" fill="#558fff"></path></g><g transform="translate(799 154)"><path d="M0 -76L65.8 -38L65.8 38L0 76L-65.8 38L-65.8 -38Z" fill="#558fff"></path></g><g transform="translate(429 596)"><path d="M0 -125L108.3 -62.5L108.3 62.5L0 125L-108.3 62.5L-108.3 -62.5Z" fill="#558fff"></path></g><g transform="translate(251 26)"><path d="M0 -90L77.9 -45L77.9 45L0 90L-77.9 45L-77.9 -45Z" fill="#558fff"></path></g></g></svg>